# xmcd CD database file
#
# Track frame offsets:
#	183
#	12078
#	22963
#	34073
#	45975
#	57335
#	67483
#	79863
#	91780
#	102540
#	114370
#	125605
#	137468
#	148533
#	160765
#	171270
#
# Disc length: 2441 seconds
#
# Revision: 6
# Processed by: cddbd v1.4PL0 Copyright (c) Steve Scherf et al.
# Submitted via: CDex 1.40Release
#
DISCID=d0098710
DTITLE=Reno and Smiley - 16 Greatest Hits
DYEAR=1900
DGENRE=Country
TTITLE0=I Know You're Married
TTITLE1=Charlotte Breakdown
TTITLE2=Excuse Me
TTITLE3=Reno Ride
TTITLE4=All I Have Is Just A Memory
TTITLE5=I wouldn't Change You If I Could
TTITLE6=I'm The Talk Of The Town
TTITLE7=Drifting With The Tide
TTITLE8=Let's Live For Tonight
TTITLE9=Choking The Strings
TTITLE10=Don't Let Your Sweet Love Die
TTITLE11=Banjo Riff
TTITLE12=Born To Lose
TTITLE13=Emotions
TTITLE14=Trail Of Sorrow
TTITLE15=Maybe You Will Chang Y our Mind 
EXTD=ID3G: 2
EXTT0=
EXTT1=
EXTT2=
EXTT3=
EXTT4=
EXTT5=
EXTT6=
EXTT7=
EXTT8=
EXTT9=
EXTT10=
EXTT11=
EXTT12=
EXTT13=
EXTT14=
EXTT15=
PLAYORDER=
